<svg xmlns="http://www.w3.org/2000/svg" viewBox="0 0 24 24">
  <defs>
    <style>
      .cls-1 {
        fill: none;
      }

      .cls-2 {
        fill: #777;
      }
    </style>
  </defs>
  <g id="outline-chat-24px" transform="translate(-51 -111)">
    <g id="Bounding_Boxes" transform="translate(51 111)">
      <path id="패스_35" data-name="패스 35" class="cls-1" d="M0,0H24V24H0Z"/>
    </g>
    <g id="Outline" transform="translate(53 113)">
      <g id="그룹_28" data-name="그룹 28">
        <path id="XMLID_4_" class="cls-2" d="M12.275,4c0,.006-1.972.109,0,0C14.382,3.91,20.061,5.662,20,9.974S14.628,16.1,12.275,16a9.5,9.5,0,0,1-2.919-.376L5.961,17.562s.218-.665,1.178-2.82A5.775,5.775,0,0,1,4,10.167C4,6.9,7.206,3.912,12.275,4m-.532-2C3.977,2.365,1.913,7.585,2,10.167a6.457,6.457,0,0,0,.74,2.853,15.541,15.541,0,0,0,1.683,2.246L2.74,21.426s5-2.44,6.508-3.177c.268-.131.334-.146.757-.355.365-.18-.029-.007,0,0l.872.106h.957C15.658,18,21.57,16.1,22,10.167V9.974C22,7.112,19.535,2.49,12.563,2c0,0-.113,0-.63,0S11.743,2,11.743,2Z" transform="translate(-2 -2)"/>
        <g id="그룹_162" data-name="그룹 162">
          <path id="XMLID_1_" class="cls-2" d="M6,6H8V8H6Z" transform="translate(-1 1)"/>
          <path id="XMLID_1_2" data-name="XMLID_1_" class="cls-2" d="M6,6H8V8H6Z" transform="translate(3 1)"/>
          <path id="XMLID_1_3" data-name="XMLID_1_" class="cls-2" d="M6,6H8V8H6Z" transform="translate(7 1)"/>
        </g>
      </g>
    </g>
  </g>
</svg>
